<?xml version="1.0" encoding="utf-8"?>
<!-- Generator: Adobe Illustrator 26.3.1, SVG Export Plug-In . SVG Version: 6.00 Build 0)  -->
<svg version="1.1" id="Layer_1" xmlns="http://www.w3.org/2000/svg" xmlns:xlink="http://www.w3.org/1999/xlink" x="0px" y="0px"
	 viewBox="0 0 144.6 300.4" style="enable-background:new 0 0 144.6 300.4;" xml:space="preserve">
<style type="text/css">
	.st0{fill:#4D4D4D;stroke:#000000;stroke-miterlimit:10;}
	.st1{fill:#FFE2C5;}
	.st2{fill:#7E9BB1;}
	.st3{fill:#778993;}
	.st4{fill:#FFFFFF;stroke:#000000;stroke-miterlimit:10;}
	.st5{fill:#8F272D;stroke:#000000;stroke-miterlimit:10;}
	.st6{fill:#EBE19E;}
	.st7{fill:#FECC8D;}
	.st8{fill:#FFB879;}
	.st9{fill:#333333;stroke:#000000;stroke-miterlimit:10;}
	.st10{fill:#ED2227;}
	.st11{fill:none;}
	.st12{fill:#FFFFFF;}
	.st13{font-family:'Arial-Black';}
	.st14{font-size:25.217px;}
	.st15{letter-spacing:1;}
</style>
<rect x="76" y="98.8" class="st0" width="11.6" height="82.6"/>
<path class="st1" d="M114.5,280.8l10.2-2.2l3.1,14.5c0.5,2.1-0.9,4.2-3,4.7l-2.5,0.5c-2.1,0.5-4.2-0.9-4.7-3L114.5,280.8
	L114.5,280.8z"/>
<rect x="103.2" y="238.3" transform="matrix(0.9776 -0.2106 0.2106 0.9776 -53.146 29.5775)" class="st2" width="18.2" height="52"/>
<rect x="47.5" y="237.8" class="st2" width="68.9" height="62.6"/>
<path class="st1" d="M90.8,246.1H72.1c-20.2,0-37.2-15.3-39.3-35.4l-2.2-21c-2.4-23.3,15.8-43.6,39.3-43.6h23
	c23.4,0,41.7,20.3,39.3,43.6l-2.2,21C127.9,230.8,111,246.1,90.8,246.1L90.8,246.1z"/>
<ellipse class="st3" cx="81.9" cy="156.6" rx="48" ry="13.3"/>
<path class="st2" d="M129.7,144.8c4.4,3.1,3,13.6-1.7,13.6H35.4c-4.8,0-6.1-10.5-1.7-13.6l14.3-10L62,125c12.3-8.6,27-8.6,39.3,0
	l14.1,9.8L129.7,144.8z"/>
<circle class="st4" cx="61.6" cy="187.1" r="13.1"/>
<ellipse transform="matrix(7.088906e-02 -0.9975 0.9975 7.088906e-02 -92.0943 275.4151)" class="st4" cx="101.8" cy="187.1" rx="13.6" ry="13.6"/>
<ellipse class="st5" cx="81.7" cy="221.1" rx="7" ry="8.4"/>
<path class="st6" d="M94.5,135.6v12.4c0,4.4-5.7,8-12.8,8c-7.1,0-12.8-3.6-12.8-8v-12.4c0,3.3,2.8,6.1,6.3,6.1
	c3.5,0,6.3-2.7,6.3-6.1c0-0.1,0-0.1,0-0.2H82c0,0.1,0,0.1,0,0.2c0,3.3,2.8,6.1,6.3,6.1C91.7,141.7,94.5,139,94.5,135.6L94.5,135.6z"
	/>
<path class="st4" d="M81.7,246.3l-27.4,22v-26.4c5.4,2.7,11.4,4.3,17.8,4.3h9.4L81.7,246.3L81.7,246.3z"/>
<path class="st4" d="M109.1,241.6v26.7l-27.4-22l0.2-0.1h8.9C97.4,246.1,103.6,244.5,109.1,241.6L109.1,241.6z"/>
<circle class="st6" cx="81.4" cy="255" r="2.1"/>
<circle class="st6" cx="81.4" cy="262.8" r="2.1"/>
<circle class="st6" cx="81.4" cy="271.2" r="2.1"/>
<g>
	<path class="st7" d="M70.1,223.1l-12.7,40.2c-0.1,0.5-0.3,1-0.5,1.5l0,0l0,0c-0.7,1.8-1.9,3.3-3.3,4.5c-1.6,1.3-3.5,2.2-5.6,2.5
		v0.3H15.5c-1.9,0-3.8-0.4-5.5-1c-4.7-1.8-8.3-5.7-9.6-10.6c-0.3-1.3-0.5-2.6-0.5-4v-63.2c0-3,2.4-5.4,5.4-5.4
		c1.4,0,2.8,0.6,3.7,1.5c0.9,0.8,1.5,1.9,1.7,3.2c0,0.3,0.1,0.5,0.1,0.8v23.8h1.2v-33.5c0-3,2.4-5.4,5.4-5.4c2.1,0,4,1.2,4.9,3
		c0.1,0.2,0.2,0.4,0.3,0.6c0.2,0.6,0.3,1.2,0.3,1.8v33.5h1.8v-36.3c0-0.3,0-0.7,0.1-1c0.4-2.4,2.4-4.3,4.9-4.4c0.1,0,0.3,0,0.4,0
		c1.4,0,2.6,0.5,3.6,1.3c1.2,1,1.9,2.5,1.9,4.1v36.3h1.6v-32.7c0-2.7,2-5,4.7-5.4c0.3,0,0.5-0.1,0.8-0.1c1.2,0,2.3,0.4,3.2,1
		c1.4,1,2.3,2.6,2.3,4.4v59.4h2.6l9-23.9c0.7-2.3,2.9-3.9,5.2-3.9c0.5,0,1.1,0.1,1.6,0.2c1.4,0.4,2.4,1.3,3.1,2.4
		C70.3,220,70.5,221.5,70.1,223.1L70.1,223.1z"/>
	<path class="st8" d="M49.9,243.8L49.9,243.8l-4,0.1v-63.7c1.1,1,1.9,2.6,1.9,4.4v59.2C47.9,243.8,49.9,243.8,49.9,243.8z"/>
	<path class="st8" d="M37.7,217.2L37.7,217.2l-4,0.1v-40.6c1.1,0.6,1.9,1.6,1.9,2.8v37.7L37.7,217.2L37.7,217.2z"/>
	<path class="st8" d="M25,217.2L25,217.2l-4,0.1v-37c1.1,0.6,1.9,1.5,1.9,2.6v34.4L25,217.2L25,217.2z"/>
	<path class="st8" d="M12.9,217.2L12.9,217.2l-4,0v-27.9c1.1,0.4,1.9,1.1,1.9,1.9v26H12.9z"/>
	<path class="st8" d="M70.1,223.1l-12.7,40.2c-0.1,0.5-0.3,1-0.5,1.5l0,0l0,0c-0.7,1.8-1.9,3.3-3.3,4.5l15.9-50.6
		C70.3,220,70.5,221.5,70.1,223.1L70.1,223.1z"/>
</g>
<circle class="st9" cx="61.6" cy="187.1" r="7.8"/>
<ellipse transform="matrix(7.088908e-02 -0.9975 0.9975 7.088908e-02 -92.0943 275.4151)" class="st9" cx="101.8" cy="187.1" rx="7.8" ry="7.8"/>
<g>
	<polygon class="st4" points="113,0.5 51.1,0.5 20.2,54.1 51.1,107.7 113,107.7 144,54.1 	"/>
	<path class="st10" d="M96.6,24.5v45h2l7-18.6c0.6-1.8,2.2-3,4-3c0.4,0,0.8,0.1,1.2,0.2c1.1,0.3,1.9,1,2.4,1.9
		c0.6,1,0.8,2.2,0.4,3.4l-9.8,31.2c-0.1,0.4-0.2,0.8-0.4,1.2l0,0l0,0c-0.6,1.4-1.4,2.6-2.6,3.5c-1.2,1-2.7,1.7-4.3,1.9v0.2H71.4
		c-1.5,0-2.9-0.3-4.3-0.8l9.6,10.6h-22L27.4,54L54.7,6.7h54.6L136.7,54l-5.2,9.1L96.6,24.5z"/>
	<path class="st8" d="M98.1,69.5L98.1,69.5L95,69.6V20.1c0.9,0.8,1.5,2,1.5,3.4v46L98.1,69.5L98.1,69.5z"/>
	<path class="st8" d="M88.6,48.8L88.6,48.8l-3.1,0V17.3c0.9,0.5,1.5,1.3,1.5,2.2v29.3H88.6z"/>
	<path class="st8" d="M78.7,48.8L78.7,48.8l-3.1,0V20.1c0.9,0.4,1.5,1.2,1.5,2v26.8H78.7z"/>
	<path class="st8" d="M69.4,48.8L69.4,48.8l-3.1,0V27.1c0.9,0.3,1.5,0.9,1.5,1.5v20.2L69.4,48.8L69.4,48.8z"/>
	<path class="st8" d="M113.8,53.4l-9.8,31.2c-0.1,0.4-0.2,0.8-0.4,1.2l0,0l0,0c-0.6,1.4-1.4,2.6-2.6,3.5L113.3,50
		C113.9,51,114.1,52.2,113.8,53.4L113.8,53.4z"/>
	<path class="st11" d="M96.6,91.5H71.4c-1.5,0-2.9-0.3-4.3-0.8l-7.4-8.2L37,57.4l22.3-20.1l7-6.3l1.4-1.3l0.1-0.1l0.9-0.8l7-6.3
		l1.2-1.1l0.1-0.1l1.6-1.5l3.8-3.5l3.8-3.4l5.6,6.2l3.2,3.6l1.5,1.6l0.1,0.2v45h2l7-18.6c0.6-1.8,2.2-3,4-3c0.4,0,0.8,0.1,1.2,0.2
		c1.1,0.3,1.9,1,2.4,1.9c0.6,1,0.8,2.2,0.4,3.4l-9.8,31.2c-0.1,0.4-0.2,0.8-0.4,1.2l0,0l0,0c-0.6,1.4-1.4,2.6-2.6,3.5
		c-1.2,1-2.7,1.7-4.3,1.9L96.6,91.5L96.6,91.5z"/>
	<polygon class="st10" points="109.4,6.9 54.8,6.9 27.5,54.1 54.8,101.4 109.4,101.4 136.7,54.1 	"/>
	<text transform="matrix(1 0 0 1 44.504 62.1506)" class="st12 st13 st14 st15">S</text>
	<text transform="matrix(1 0 0 1 63.7247 62.1506)" class="st12 st13 st14">T</text>
	<text transform="matrix(1 0 0 1 82.0812 62.1506)" class="st12 st13 st14 st15">OP</text>
</g>
</svg>
